<svg xmlns:svg="http://www.w3.org/2000/svg" xmlns="http://www.w3.org/2000/svg" height="100" width="100"><g transform="matrix(4.7619048,0,0,4.7619048,-27.788715,-4888.3498)"><g transform="translate(-318,-262)" display="inline"><g><path style="marker:none" d="m 333.19117,1290.764 c -5.52632,0 -9.35554,4.4211 -9.35554,6.6316 0,2.2105 1.10526,3.8684 3.31579,3.8684 2.21053,0 3.31579,0.5526 3.31579,2.2105 0,2.2106 1.65789,3.8684 3.86842,3.8684 7.18421,0 10.5,-3.8684 10.5,-7.7368 0,-6.6316 -5.01289,-8.8421 -11.64446,-8.8421 z m -1.47501,2.2105 c 0.763,0 1.38158,0.6186 1.38158,1.3816 0,0.763 -0.61858,1.3816 -1.38158,1.3816 -0.76301,0 -1.38158,-0.6186 -1.38158,-1.3816 0,-0.763 0.61857,-1.3816 1.38158,-1.3816 z m 4.42105,0 c 0.763,0 1.38158,0.6186 1.38158,1.3816 0,0.763 -0.61858,1.3816 -1.38158,1.3816 -0.763,0 -1.38158,-0.6186 -1.38158,-1.3816 0,-0.763 0.61858,-1.3816 1.38158,-1.3816 z m 4.00105,2.2106 c 0.76301,0 1.38158,0.6185 1.38158,1.3815 0,0.763 -0.61857,1.3816 -1.38158,1.3816 -0.76301,0 -1.38158,-0.6186 -1.38158,-1.3816 0,-0.763 0.61857,-1.3815 1.38158,-1.3815 z m -12.29052,0.2652 c 0.763,0 1.38157,0.6186 1.38157,1.3816 0,0.763 -0.61857,1.3816 -1.38157,1.3816 -0.76301,0 -1.38158,-0.6186 -1.38158,-1.3816 0,-0.763 0.61857,-1.3816 1.38158,-1.3816 z m 7.32789,6.3663 c 0.91563,0 1.65789,0.7423 1.65789,1.6579 0,0.9157 -1.16226,1.6579 -2.07789,1.6579 -0.91563,0 -1.65789,-0.7422 -1.65789,-1.6579 0,-0.9156 1.16226,-1.6579 2.07789,-1.6579 z" color="#000" display="inline" overflow="visible" visibility="visible" fill="navy" fill-opacity="1" stroke="none" stroke-width="1.10526" enable-background="accumulate"/></g></g></g></svg>